# xmcd
#
# Track frame offsets: 
#        150
#        2155
#        15838
#        34409
#        44754
#        58478
#        72277
#        87803
#        105908
#        120004
#        135027
#        146304
#        155370
#        170220
#        186461
#        197475
#
# Disc length: 2815 seconds
#
# Revision: 0
# Processed by: cddbd v1.5.1PL2 Copyright (c) Steve Scherf et al.
# Submitted via: ExactAudioCopy v0.95b3
#
DISCID=cd0afd10
DTITLE=Brother Yusef - ...in the moment
DYEAR=2005
DGENRE=
TTITLE0=Intro
TTITLE1=Born Under A Bad Sign
TTITLE2=Goin' Down The Road
TTITLE3=Roll Away Jam
TTITLE4=High Rollin
TTITLE5=Framed
TTITLE6=Give Me Back That Wig
TTITLE7=Long Way From Home
TTITLE8=Soul Fire
TTITLE9=In My Life
TTITLE10=Hit It and Run
TTITLE11=Smooth Like That
TTITLE12=Bakersfield Blues
TTITLE13=Bad Luck Messin' With Me
TTITLE14=The Morning Worship Shuffle
TTITLE15=Shake It
EXTD=
EXTT0=
EXTT1=
EXTT2=
EXTT3=
EXTT4=
EXTT5=
EXTT6=
EXTT7=
EXTT8=
EXTT9=
EXTT10=
EXTT11=
EXTT12=
EXTT13=
EXTT14=
EXTT15=
PLAYORDER=
